<?xml version="1.0" standalone="yes"?>
<svg xmlns="http://www.w3.org/2000/svg" width="621" height="601">
<path style="fill:#87f9fb; stroke:none;" d="M0 0L0 30C0 34.2603 -0.952854 39.9246 0.603395 43.9606C1.77188 46.9911 4.71545 48.946 7.00077 51.0895C11.8414 55.6295 16.8738 59.9453 21.7145 64.4637C39.8911 81.4304 58.7688 97.5074 77.439 113.924C123.497 154.421 171.081 193.276 219 231.551C245.375 252.618 273.329 272.103 299 294C272.966 280.302 248.211 264.05 223 248.922C175.089 220.173 127.469 190.209 82 157.701C63.4951 144.47 45.1504 130.972 27.0895 117.141C18.0531 110.221 9.64982 102.035 0 96L0 132C0 136.405 -1.36727 143.64 1.02778 147.532C4.47991 153.143 14.5445 157.577 20 161.163C37.8709 172.91 57.0443 183.077 76 192.944C126.931 219.458 178.322 244.574 231 267.424C244.312 273.199 257.671 278.833 271 284.568C280.38 288.604 290.046 293.636 300 296C293.003 296.464 285.751 293 279 291.333C262.23 287.19 245.579 282.268 229 277.424C175.572 261.817 122.47 245.712 70 227.136C53.4163 221.265 37.2801 214.188 21 207.554C14.0084 204.705 7.53054 200.129 0 199L0 235C0 238.544 -1.28039 245.305 1.02778 248.272C4.35337 252.548 15.9954 252.914 21 254.014C38.9722 257.963 56.8985 261.387 75 264.615C123.22 273.213 171.54 280.471 220 287.428C245.88 291.144 271.897 295.94 298 298C288.597 300.779 276.782 299 267 299L205 299L0 299L0 349C10.7172 348.125 21.4783 344.435 32 342.211C50.9082 338.213 69.9782 334.855 89 331.424C131.814 323.702 174.929 317.821 218 311.715C245.869 307.763 273.919 302.219 302 300C282.471 307.367 261.033 310.776 241 316.721C186.688 332.837 132.557 348.899 79 367.495C60.0616 374.071 41.6458 381.761 23 389.062C17.2516 391.312 4.42836 395.06 1.02778 400.39C-1.28641 404.018 0 410.87 0 415L0 451C13.4309 443.709 25.9412 434.497 39 426.544C51.9683 418.646 65.6293 411.54 79 404.309C121.688 381.222 165.966 361.433 210 341.115C228.498 332.579 247.243 324.604 266 316.667C275.426 312.678 285.025 307.369 295 305C272.211 320.314 247.616 333.443 224 347.452C172.455 378.03 121.213 410.785 73 446.371C57.0319 458.157 41.037 470.03 25 481.706C19.4931 485.715 14.2666 490.105 9 494.424C6.29646 496.641 2.71875 498.94 1.02778 502.09C-1.26079 506.351 0 513.303 0 518L0 553C11.035 547.861 20.8646 535.633 29.8302 527.464C49.2822 509.74 69.1057 492.396 88.9961 475.17C133.925 436.258 180.597 399.339 226.91 362.127C244.101 348.314 261.299 334.44 279 321.269C285.356 316.539 291.264 311.195 298 307C232.008 372.992 166.416 439.416 100.004 504.985C78.1819 526.53 56.5467 548.25 34.9252 570C25.3838 579.598 11.9074 589.368 5 601L42 601C46.9199 601 53.6629 602.194 57.9853 599.397C65.9964 594.212 72.6342 584.015 79.0856 577C95.8978 558.718 111.977 539.747 128.282 521C171.959 470.78 215.177 419.278 255.14 366.039C264.28 353.864 273.949 341.899 283.449 330C288.469 323.713 294.844 317.455 298 310C297.88 317.746 290.382 326.353 286.579 333C275.979 351.528 264.857 369.838 253.656 388C223.551 436.811 192.749 485.279 159.442 532C149.601 545.805 139.704 559.693 129.196 573C122.144 581.931 113.18 590.853 108 601L144 601C148.141 601 154.969 602.281 158.61 599.972C160.969 598.477 162.354 595.271 163.834 593C166.883 588.324 170.103 583.749 173.035 579C184.902 559.783 196.824 539.486 206.309 519C213.836 502.745 223.19 487.224 230.881 471C246.122 438.852 260.681 406.44 275.306 374C281.58 360.082 287.431 346.038 293.421 332C296.78 324.128 300.738 316.27 303 308C303.607 317.073 298.9 327.328 296.427 336L279.909 394C259.811 464.602 236.168 533.253 208 601L258 601C271.976 533.253 284.049 465.544 293.282 397C296.475 373.3 300.61 349.79 303.166 326C303.956 318.65 305.847 311.402 306 304C308.779 313.403 307 325.218 307 335L307 397L307 601L356 601C355.519 595.484 353.405 590.396 352.285 585C348.835 568.378 345.442 551.702 342.424 535C333.311 484.561 325.559 433.785 318.718 383C315.465 358.854 310.047 334.374 309 310C312.293 317.652 313.645 326.011 315.909 334L331.745 390C344.088 433.787 358.947 476.704 372.806 520C379.009 539.379 386.865 558.199 394.548 577C397.1 583.246 399.903 595.969 405.637 599.972C409.027 602.339 416.057 601 420 601L455 601C451.077 590.3 442.785 580.81 437.011 571C425.601 551.615 414.573 531.984 404.258 512C369.62 444.89 338.973 375.683 310 306C317.813 316.941 324.053 329.396 330.861 341C341.863 359.753 353.131 378.358 364.309 397C389.483 438.98 417.079 479.703 444.825 520C458.45 539.788 472.845 558.981 487.5 578C492.474 584.456 498.168 595.784 505.326 599.976C509.35 602.333 516.49 601 521 601L557 601C542.022 579.719 521.499 561.471 504.424 541.826C457.436 487.77 411.509 432.582 367.575 376C354.326 358.937 340.653 342.24 327.626 325C322.81 318.627 317.239 312.784 313 306L535 528L587 580C593.094 586.094 600.792 597.37 609 600.397C612.579 601.716 617.24 601 621 601L621 574C621 570.131 621.884 564.935 620.4 561.286C619.179 558.284 616.097 555.916 613.83 553.714C608.664 548.694 603.312 543.938 598.004 539.075C578.95 521.616 559.669 504.33 540 487.573C495.987 450.074 452.048 412.565 406.715 376.657C385.496 359.85 364.337 342.97 342.961 326.37C333.316 318.881 323.22 312.03 314 304C326.138 309.674 337.497 317.539 349 324.396C366.729 334.965 384.609 345.342 402 356.46C447.677 385.662 493.855 413.883 538 445.427C555.211 457.726 572.429 470.133 589 483.285C594.857 487.934 600.983 492.367 606.714 497.154C611.316 500.997 615.508 505.484 621 508L621 471C621 466.449 622.301 459.461 619.566 455.529C617.778 452.958 614.525 451.5 611.996 449.795C606.67 446.204 601.492 442.439 596 439.103C577.827 428.063 559.708 417.04 541 406.92C494.9 381.981 447.056 359.324 399 338.498C371.599 326.622 344.424 312.264 316 303C324.535 302.434 333.773 307.057 342 309.127C362.157 314.197 382.111 320.24 402 326.231C448.588 340.262 495.332 353.645 541 370.53C560.162 377.615 579.336 384.85 598 393.17C605.697 396.601 613.088 401.121 621 404L621 351C600.607 346.791 580.43 341.528 560 337.449C478.448 321.167 395.472 310.432 313 300C322.683 297.138 334.924 299 345 299L410 299L621 299L621 247C598.863 249.981 577.016 257.388 555 261.384C502.826 270.855 450.399 278.185 398 286.275C370.264 290.557 341.987 295.791 314 298C323.079 293.982 333.427 292.319 343 289.718C357.367 285.814 371.683 281.663 386 277.573C438.713 262.51 491.646 246.972 543 227.684C562.186 220.479 581.455 213.581 600 204.833C605.378 202.296 616.583 199.478 619.972 194.443C622.438 190.779 621 183.233 621 179L621 142C612.532 145.941 604.847 152.558 597 157.655C584.633 165.688 571.815 173.132 559 180.432C506.361 210.42 451.13 235.462 396 260.312C378.434 268.23 360.728 275.835 343 283.421C333.833 287.344 324.573 292.242 315 295C390.868 248.567 467.223 203.923 540 152.555C559.375 138.88 578.418 124.732 597 109.997C602.05 105.992 606.986 101.852 612 97.8033C614.648 95.6649 618.201 93.5505 619.972 90.561C622.333 86.5758 621 79.4745 621 75L621 38C616.299 40.4388 612.942 44.239 609 47.7145C601.182 54.6074 593.552 61.7764 586 68.9614C568.991 85.1435 550.737 100.328 533 115.718C485.716 156.743 437.158 196.446 388 235.211C364.001 254.136 340.499 275.15 315 292C318.875 286.693 324.211 282.405 328.925 277.844C335.405 271.576 341.454 264.93 348 258.711C361.95 245.459 375.167 231.31 388.925 217.833C436.477 171.253 482.829 123.39 530.014 76.4244C545.785 60.7263 561.549 45.0203 577.285 29.2847C586.786 19.7831 597.897 10.721 606 0L570 0C565.357 0 558.631 -1.22235 554.286 0.603394C551.176 1.91058 549.05 5.27667 546.883 7.71448C542.304 12.8679 537.558 17.8925 532.925 23C515.971 41.6923 499.07 60.6063 482.919 80C447.227 122.857 411.299 165.435 376.449 209C355.086 235.705 335.372 264.147 313 290C317.059 280.592 323.324 271.816 328.548 263L352.397 223C382.379 172.432 414.399 122.899 448.09 74.7145C459.875 57.8582 472.213 41.3459 484.57 24.9105C490.603 16.8863 499.061 9.30652 503 0L468 0C463.775 0 457.082 -1.24438 453.329 1.02777C450.565 2.70093 449.123 6.24139 447.543 8.91052C444.515 14.0258 441.061 18.8082 438.139 24C428.384 41.3334 418.111 58.2829 409 76C385.117 122.44 363.13 169.436 341.688 217C334.963 231.918 328.713 247.011 322.139 262C317.86 271.757 312.815 281.708 310 292C309.255 283.599 314.039 273.145 316.293 265C321.475 246.278 326.753 227.622 332.279 209C345.496 164.462 358.094 119.673 374.053 76C380.032 59.6392 385.915 43.1375 392.453 27C396.093 18.0163 401.316 9.31702 404 0L368 0C364.564 0 357.655 -1.31488 355.14 1.60339C351.388 5.95593 350.745 17.4042 349.601 23C345.932 40.9443 342.626 58.9913 339.386 77C330.143 128.372 322.293 180.193 315.844 232C313.367 251.901 308.415 271.901 308 292C305.221 282.597 307 270.782 307 261L307 200L307 0L259 0C259.472 10.3385 263.17 20.8517 265.2 31C269.189 50.946 272.839 70.975 276.385 91C283.383 130.518 288.655 170.285 294.285 210C298.241 237.896 303.781 265.885 306 294C298.994 275.429 295.529 255.102 290.091 236C274.561 181.444 259.296 126.091 239.192 73C232.369 54.9813 226.531 36.452 218.255 19C215.822 13.8686 214.232 4.42712 209.363 1.02777C205.973 -1.33856 198.943 0 195 0L160 0C172.709 23.7792 188.225 46.1008 200.88 70C225.152 115.837 246.734 162.882 268.309 210C275.121 224.877 281.251 240.038 287.862 255C292.73 266.018 298.666 277.423 302 289C296.739 281.758 292.671 273.669 288.078 266C276.937 247.396 265.942 228.699 254.694 210.17C227.203 164.881 198.1 120.631 168.025 77C155.352 58.6135 142.149 40.6154 128.424 23C124.495 17.9562 120.671 12.8467 116.709 7.83026C114.896 5.53473 113.295 2.5434 110.7 1.02777C106.661 -1.33118 99.5223 0 95 0L59 0C68.9507 14.5148 83.1025 26.7785 94.7137 40C119.777 68.5385 144.461 97.4213 168.986 126.424C204.198 168.066 237.623 211.339 271.6 254C281.565 266.513 290.528 279.898 301 292C292.602 286.928 286.352 277.922 279.428 271.04C263.199 254.909 246.985 238.766 230.883 222.51C181.546 172.701 131.293 123.791 82.0833 73.8557C63.8315 55.3347 45.388 36.9916 26.9167 18.6898C18.9219 10.7685 12.1047 0.0427856 0 0z"/>
<path style="fill:#61d3d5; stroke:none;" d="M8 0C14.1937 8.26953 22.8386 15.1625 30.1165 22.51C46.0404 38.5861 62.1933 54.4346 78.1165 70.51C123.233 116.058 169 160.962 214.117 206.51C234.4 226.987 254.679 247.492 275.279 267.653C283.103 275.31 290.74 287.847 301 292C295.704 283.495 288.936 275.976 282.895 268.004C269.063 249.751 254.76 231.882 240.449 214C204.03 168.492 167.685 122.857 129.285 79C113.779 61.2912 98.177 43.6559 82.7153 25.9252C77.7711 20.2555 72.5962 14.7831 67.4637 9.28552C64.8655 6.50238 62.4446 2.79584 58.9853 1.02777C54.6044 -1.21143 47.7873 0 43 0L8 0M111 0C117.3 12.6623 128.554 23.7736 137.116 35C152.556 55.2449 167.243 76.2264 181.575 97.2708C224.049 159.641 261.648 224.703 301 289C302.723 282.716 295.696 272.941 293.424 267C285.656 246.678 276.125 226.942 267.424 207C245.441 156.611 220.463 107.82 195.258 59C187.882 44.7121 179.749 30.6702 171.145 17.0895C168.084 12.2573 164.847 3.96967 159.791 1.02777C155.934 -1.21655 149.307 0 145 0L111 0M210 0C212.474 8.58746 217.056 16.7832 220.573 25C225.907 37.4659 230.833 50.2635 235.456 63C252.891 111.034 267.195 160.049 281.721 209C287.636 228.934 293.444 248.859 298.63 269C300.773 277.326 303.848 285.443 305 294C307.44 287.749 303.877 278.546 303.166 272C300.913 251.269 297.746 230.596 294.438 210C287.165 164.717 281.158 119.26 273.565 74C270.763 57.2969 267.432 40.587 263.997 24C262.353 16.0649 259.704 8.07562 259 0L210 0M307 0L307 292C308.97 287.611 308.72 282.714 309.285 278C310.169 270.633 311.372 263.351 312.286 256C314.944 234.64 318.407 213.342 321.282 192C329.965 127.547 341.866 63.6681 355 0L307 0M309 292C312.666 287.463 314.297 281.375 316.449 276C319.011 269.6 321.996 263.381 324.603 257C333.354 235.585 342.337 213.873 352.262 193C373.026 149.332 393.287 105.563 416.309 63C424.168 48.469 432.417 34.1537 440.922 20C444.945 13.3042 449.677 7.10785 453 0L418 0C414.273 0 407.85 -1.21527 404.637 1.02777C399.664 4.5 398.206 13.7975 395.738 19C387.801 35.7382 382.113 53.6658 375.576 71C358.672 115.823 345.893 162.123 332.279 208C326.072 228.917 319.884 249.842 314.525 271C312.748 278.017 309.969 284.809 309 292M313 290C319.871 284.407 324.759 275.954 330.21 269C341.434 254.68 352.533 240.273 363.804 226C398.643 181.882 433.933 137.984 470.475 95.2855C489.558 72.9862 509.204 51.1761 528.424 29C536.243 19.9785 548.001 10.9052 553 0L518 0C513.801 0 507.193 -1.23376 503.464 1.02777C500.26 2.97076 497.904 7.09253 495.65 10C491.317 15.5916 486.725 20.9528 482.614 26.7145C470.704 43.4051 457.792 59.3844 446.35 76.4244C413.452 125.415 380.957 174.376 350.6 225C343.019 237.643 335.602 250.413 327.938 263C322.828 271.393 315.778 280.56 313 290M315 292C323.519 288.204 330.615 280.748 338 275.13C355.522 261.802 372.65 247.97 390 234.424C446.899 190.002 502.57 143.639 556.576 95.7454C572.502 81.6213 588.613 67.7465 604 53.0394C608.901 48.3552 617.777 43.2582 620.397 36.8303C621.791 33.4089 621 28.6242 621 25L621 0C616.624 0 611.182 -0.857361 607.001 0.588745C602.812 2.03766 599.946 5.90503 596.925 8.92517C591.897 13.9534 586.808 18.9173 581.834 24C568.348 37.7803 554.535 51.2662 540.924 64.9252C490.063 115.968 439.585 167.533 388 217.833C369.865 235.516 351.137 253.089 334 271.715C328.067 278.163 318.913 284.107 315 292M0 45L0 81C0 85.7676 -1.2716 92.7169 1.6034 96.8302C4.37215 100.792 9.24882 103.707 13 106.661C19.3066 111.628 25.5037 116.706 32 121.425C50.6952 135.006 68.7829 149.351 88 162.205C132.631 192.06 177.424 221.148 223 249.533C236.201 257.755 249.789 265.347 263 273.532C274.444 280.623 286.302 289.379 299 294C293.481 287.318 284.945 282.187 278 276.997C268.591 269.966 259.504 262.474 250.17 255.34C222.488 234.185 195.433 211.976 168.424 189.965C129.166 157.971 90.2692 125.253 52.3002 91.7423C40.0628 80.9419 28.1435 69.723 15.9992 58.8264C10.6845 54.0577 6.10008 48.8156 0 45M315 294C318.658 295.003 321.646 292.777 325 291.336C329.639 289.344 334.387 287.717 339 285.629C358.821 276.657 378.88 267.675 399 259.452C425.127 248.774 450.666 236.261 476 223.806C506.012 209.05 536.109 194.365 565 177.449C578.491 169.55 591.984 161.677 605 153C609.554 149.964 617.55 146.527 620.142 141.482C622.262 137.356 621 130.518 621 126L621 91C610.685 95.5974 601.912 105.451 593 112.35C573.938 127.104 554.704 141.544 535 155.445C490.403 186.908 444.276 215.765 398 244.533C382.086 254.426 366.07 264.027 350 273.649C338.499 280.536 327.159 288.323 315 294M0 148L0 199C7.08189 200.683 13.2781 204.815 20 207.554C36.2801 214.188 52.4163 221.265 69 227.136C117.191 244.197 165.861 259.434 215 273.558C232.997 278.731 250.987 283.809 269 288.909C279.125 291.775 289.582 295.467 300 297C295.623 293.687 290.042 292.223 285 290.139C274.659 285.865 264.234 281.659 254 277.138C222.242 263.107 190.535 249.024 159 234.525C120.332 216.748 81.9352 196.96 45.0895 175.692C36.3236 170.632 27.4171 165.449 19 159.833C12.8432 155.724 6.86219 150.848 0 148M314 297C321.056 299.754 333.564 295.578 341 294.424C360.29 291.433 379.706 289.253 399 286.275C451.399 278.185 503.826 270.855 556 261.384C577.832 257.421 599.275 251.484 621 247L621 195C610.953 198.371 601.72 203.952 592 208.127C573.287 216.165 554.195 223.604 535 230.459C488.633 247.018 441.408 261.534 394 274.745C367.36 282.169 340.984 290.829 314 297M0 249L0 299L298 299C290.42 294.97 279.413 296.024 271 294.725C249.375 291.387 227.563 289.315 206 285.715C156.707 277.483 107.16 270.916 58 261.739C38.5206 258.103 19.3913 253.002 0 249M312 290L313 291L312 290M313 299C321.064 303.832 334.75 302.952 344 304.271C368.312 307.737 392.665 311.011 417 314.289C464.409 320.675 512.052 328.076 559 337.449C579.555 341.553 600.271 348.209 621 351L621 299L313 299M0 349L0 400C21.0596 391.232 41.5317 381.398 63 373.529C112.733 355.302 163.295 340.276 214 325.23C232.626 319.703 251.278 314.426 270 309.255C280.559 306.338 291.106 302.467 302 301C295.801 298.58 285.6 302.208 279 302.95C258.601 305.241 238.263 308.307 218 311.562C174.701 318.516 131.173 323.637 88 331.424C68.9782 334.855 49.9082 338.213 31 342.211C20.7102 344.386 10.416 347.597 0 349M316 302C319.63 305.203 324.618 306.308 329 308.309C337.579 312.226 346.271 315.885 355 319.452C379.589 329.501 403.864 340.703 428 351.792C471.874 371.949 516.093 392.817 558 416.872C571.797 424.792 585.634 432.892 599 441.54C606.355 446.299 613.265 451.866 621 456L621 418C621 413.916 622.31 407.094 619.397 403.789C614.526 398.263 602.736 394.694 596 391.95C579.395 385.186 562.615 378.871 546 372.142C499.659 353.376 450.802 340.628 403 326.231C382.434 320.037 361.796 314.037 341 308.623C332.693 306.46 324.516 303.253 316 302M295 304C296.809 304.574 297.069 304.465 299 304C297.341 303.594 296.758 303.691 295 304M306 304C305.697 311.053 303.92 317.983 303.166 325C300.683 348.105 297.205 371.044 293.59 394C286.186 441.02 279.442 488.043 271.565 535C267.862 557.072 260.979 578.877 258 601L307 601L307 391L307 331C307 322.993 309.105 311.4 306 304M314 304C319.853 311.237 328.596 316.323 336 321.873C348.83 331.492 361.46 341.458 374 351.45C420.442 388.452 466.945 425.451 511.997 464.133C537.882 486.359 563.307 509.045 588.911 531.576C595.353 537.245 601.828 543.054 608 549.011C612.028 552.898 615.927 557.572 621 560L621 524C621 519.499 622.319 512.449 619.972 508.428C615.613 500.959 604.707 495.068 598 489.789C580.592 476.088 562.9 462.901 545 449.849C496.155 414.232 444.757 382.147 393.285 350.525C377.595 340.886 361.618 331.706 346 321.95C336.148 315.796 325.085 307.509 314 304M0 502C13.0788 493.821 24.8336 482.528 37 473.015C54.1045 459.64 72.2272 447.197 90 434.721C129.304 407.131 170.012 381.29 211 356.255C238.8 339.275 266.445 321.68 295 306C288.479 304.077 278.095 311.113 272 313.603C250.805 322.264 229.786 331.524 209 341.115C173.382 357.55 137.849 373.755 103 391.742C85.2419 400.907 66.9931 409.395 50 419.949C38.0964 427.342 25.7143 433.897 14 441.666C10.0433 444.29 3.45826 446.948 1.02392 451.21C-1.19955 455.103 0 461.668 0 466L0 502M310 306C316.304 327.893 328.144 349.085 337.127 370C359.428 421.921 383.819 472.776 409.742 523C419.731 542.354 430.28 561.595 441.953 580C445.581 585.72 449.767 596.257 455.529 599.972C459.113 602.284 465.91 601 470 601L505 601C501.613 593.987 495.735 588.264 491.151 582C480.748 567.785 469.907 553.876 459.424 539.714C435.102 506.858 412.842 472.347 390.707 438C373.37 411.099 356.134 383.808 340.281 356C333.954 344.903 327.363 333.96 320.8 323C317.428 317.369 314.685 310.621 310 306M313 306C317.163 315.835 326.462 324.555 332.989 333C347.254 351.458 361.722 369.757 376.155 388.09C415.83 438.486 458.106 486.58 498.916 536C511.615 551.378 525.103 566.314 538.711 580.911C544.179 586.776 549.739 596.337 557 599.972C561.426 602.189 568.179 601 573 601L608 601C603.026 593.938 596.099 588.099 590 582L559 551L461 453L363 355L332 324C325.901 317.901 320.062 310.974 313 306M0 601C9.4834 600.297 16.9333 588.7 23.2847 582.424C41.7709 564.158 60.2454 545.846 78.4252 527.286C128.559 476.102 180.065 426.25 230.424 375.285C245.14 360.393 260.191 345.809 275 331C282.692 323.308 291.729 315.903 298 307C288.555 310.993 280.079 319.515 272 325.793C255.273 338.791 238.975 352.456 222.004 365.116C167.181 406.01 116.372 452.367 64 496.246C48.9259 508.876 34.85 522.686 20 535.576C14.4028 540.434 3.50554 547.346 0.603395 554.286C-1.11474 558.394 0 564.618 0 569L0 601M303 308C274.354 381.857 239.081 453.279 203.63 524C194.613 541.986 184.046 559.777 173.652 577C168.814 585.016 162.638 592.32 159 601L195 601C198.89 601 205.21 602.188 208.362 599.397C212.223 595.976 213.827 588.615 215.86 584C221.509 571.18 226.076 557.976 231.309 545C253.094 490.972 266.738 434.288 284.67 379C290.089 362.293 294.609 344.984 299.116 328C300.619 322.335 304.682 313.685 303 308M298 310C293.108 317.829 286.71 324.662 281.13 332C266.514 351.224 251.468 370.127 236.4 389C196.435 439.055 155.95 488.829 113.714 537C100.794 551.735 87.6811 566.299 74.7145 581C68.8086 587.696 62.1245 593.639 57 601L93 601C97.3131 601 103.839 602.197 107.711 599.972C112.909 596.985 116.799 589.646 120.424 585C129.697 573.117 138.635 561.053 147.665 549C184.477 499.867 215.747 447.268 249.329 396C262.693 375.599 275.064 354.186 287.15 333C290.4 327.305 299.767 316.634 298 310M309 310C309.508 334.619 315.436 359.637 318.718 384C325.559 434.785 333.311 485.561 342.424 536C345.442 552.702 348.835 569.378 352.285 586C353.336 591.059 355.247 595.881 356 601L405 601C400.663 585.944 392.074 571.706 386.533 557C370.296 513.909 355.952 470.104 342.72 426C335.248 401.095 327.524 376.137 320.884 351C318.767 342.984 316.384 335.039 314.373 327C312.978 321.422 312.011 314.928 309 310z"/>
</svg>
